<svg id="Layer_1" data-name="Layer 1" xmlns="http://www.w3.org/2000/svg" viewBox="0 0 101 101"><defs><style>.cls-1{fill:none;stroke:#891d1d;stroke-linejoin:round;}</style></defs><title>we</title><rect class="cls-1" x="33.75" y="22.71" width="11.17" height="11.08"/><rect class="cls-1" x="33.75" y="11.63" width="22.34" height="22.17"/><rect class="cls-1" x="33.75" y="0.55" width="33.51" height="33.25"/><rect class="cls-1" x="66.94" y="56.01" width="11.17" height="11.08"/><rect class="cls-1" x="66.94" y="44.92" width="22.34" height="22.17"/><rect class="cls-1" x="66.94" y="33.84" width="33.51" height="33.25"/><rect class="cls-1" x="89.33" y="67.12" width="11.17" height="11.08"/><rect class="cls-1" x="78.16" y="67.12" width="22.34" height="22.17"/><rect class="cls-1" x="66.99" y="67.12" width="33.51" height="33.25"/><rect class="cls-1" x="22.84" y="67.12" width="11.17" height="11.08"/><rect class="cls-1" x="11.67" y="67.12" width="22.34" height="22.17"/><rect class="cls-1" x="0.5" y="67.12" width="33.51" height="33.25"/><ellipse class="cls-1" cx="9.78" cy="25.11" rx="5.44" ry="5.49"/><ellipse class="cls-1" cx="13.63" cy="21.23" rx="10.88" ry="10.98"/><ellipse class="cls-1" cx="17.48" cy="17.34" rx="16.32" ry="16.47"/><polygon class="cls-1" points="34.07 56.02 34.07 67.14 45.09 67.14 34.07 56.02"/><polygon class="cls-1" points="34.07 44.91 34.07 67.14 56.11 67.14 34.07 44.91"/><polygon class="cls-1" points="34.07 33.79 34.07 67.14 67.13 67.14 34.07 33.79"/><polygon class="cls-1" points="11.55 33.79 0.53 33.79 0.53 44.91 11.55 33.79"/><polygon class="cls-1" points="22.57 33.79 0.53 33.79 0.53 56.02 22.57 33.79"/><polygon class="cls-1" points="33.59 33.79 0.53 33.79 0.53 67.14 33.59 33.79"/><polygon class="cls-1" points="45.15 67.15 34.13 67.15 34.13 78.27 45.15 67.15"/><polygon class="cls-1" points="56.17 67.15 34.13 67.15 34.13 89.39 56.17 67.15"/><polygon class="cls-1" points="67.19 67.15 34.13 67.15 34.13 100.5 67.19 67.15"/><polygon class="cls-1" points="67.25 22.73 67.25 33.85 78.27 33.85 67.25 22.73"/><polygon class="cls-1" points="67.25 11.62 67.25 33.85 89.29 33.85 67.25 11.62"/><polygon class="cls-1" points="67.25 0.5 67.25 33.85 100.31 33.85 67.25 0.5"/></svg>